# AST/ASF file generated using VICON BodyLanguage
# -----------------------------------------------
:version 1.10
:name VICON
:units
  mass 1.0
  length 0.45
  angle deg
:documentation
   .ast/.asf automatically generated from VICON data using
   VICON BodyBuilder and BodyLanguage model FoxedUp or BRILLIANT.MOD
:root
   order TX TY TZ RX RY RZ
   axis XYZ
   position 0 0 0  
   orientation 0 0 0 
:bonedata
  begin
     id 1 
     name lhipjoint
     direction 0.54267 -0.795011 0.271047 
     length 2.39899 
     axis 0 0 0  XYZ
  end
  begin
     id 2 
     name lfemur
     direction 0.34202 -0.939693 0  
     length 7.49701  
     axis 0 0 20  XYZ
    dof rx ry rz
    limits (-160.0 20.0)
           (-70.0 70.0)
           (-60.0 70.0)
  end
  begin
     id 3 
     name ltibia
     direction 0.34202 -0.939693 0   
     length 8.1668   
     axis 0 0 20   XYZ
    dof rx
    limits (-10.0 170.0)
  end
  begin
     id 4 
     name lfoot
     direction 0.0736283 -0.202292 0.976554   
     length 2.13544   
     axis -90 7.62852e-016 20   XYZ
    dof rx rz
    limits (-45.0 90.0)
           (-70.0 20.0)
  end
  begin
     id 5 
     name ltoes
     direction 1.53557e-011 -4.22024e-011 1   
     length 1.07411   
     axis -90 7.62852e-016 20   XYZ
    dof rx
    limits (-90.0 20.0)
  end
  begin
     id 6 
     name rhipjoint
     direction -0.538061 -0.797813 0.272002   
     length 2.39057  
     axis 0 0 0  XYZ 
  end
  begin
     id 7 
     name rfemur
     direction -0.34202 -0.939693 0   
     length 7.50152   
     axis 0 0 -20   XYZ
    dof rx ry rz
    limits (-160.0 20.0)
           (-70.0 70.0)
           (-70.0 60.0)
  end
  begin
     id 8 
     name rtibia
     direction -0.34202 -0.939693 0   
     length 8.05793   
     axis 0 0 -20   XYZ
    dof rx
    limits (-10.0 170.0)
 end
 begin
     id 9 
     name rfoot
     direction -0.0765195 -0.210236 0.974652   
     length 2.28698  
     axis -90 -7.62852e-016 -20   XYZ
    dof rx rz
    limits (-45.0 90.0)
           (-20.0 70.0)
  end
  begin
     id 10 
     name rtoes
     direction -1.53542e-011 -4.21847e-011 1   
     length 1.14762   
     axis -90 -7.62852e-016 -20   XYZ
    dof rx
    limits (-90.0 20.0)
  end
  begin
     id 11 
     name lowerback
     direction -0.0217239 0.996592 -0.0795765   
     length 2.08176   
     axis 0 0 0   XYZ
    dof rx ry rz
    limits (-20.0 45.0)
           (-30.0 30.0)
           (-30.0 30.0)
  end
  begin
     id 12 
     name upperback
     direction -0.00563773 0.999651 -0.0258155   
     length 2.08898   
     axis 0 0 0   XYZ
    dof rx ry rz
    limits (-20.0 45.0)
           (-30.0 30.0)
           (-30.0 30.0)
  end
  begin
     id 13 
     name thorax
     direction 0.0032706 0.999923 0.0119599   
     length 2.0968   
     axis 0 0 0   XYZ
    dof rx ry rz
    limits (-20.0 45.0)
           (-30.0 30.0)
           (-30.0 30.0)
  end
  begin
     id 14 
     name lowerneck
     direction -0.0285886 0.99568 0.0883427   
     length 1.81272   
     axis 0 0 0   XYZ
    dof rx ry rz
    limits (-20.0 45.0)
           (-30.0 30.0)
           (-30.0 30.0)
  end
  begin
     id 15 
     name upperneck
     direction 0.0807535 0.97985 -0.18268   
     length 1.82518   
     axis 0 0 0   XYZ
    dof rx ry rz
    limits (-20.0 45.0)
           (-30.0 30.0)
           (-30.0 30.0)
  end
  begin
     id 16
     name head
     direction 0.0236605 0.997053 -0.0729767  
     length 1.84443  
     axis 0 0 0   XYZ
    dof rx ry rz
    limits (-20.0 45.0)
           (-30.0 30.0)
           (-30.0 30.0)
  end
  begin
     id 17 
     name lclavicle
     direction 0.918986 0.39378 -0.0200683  
     length 3.27822  
     axis 0 0 0   XYZ
    dof ry rz
    limits (-20.0 10.0)
           (0.0 20.0)
  end
  begin
     id 18 
     name lhumerus
     direction 1 -4.4897e-011 2.09544e-027   
     length 5.5568   
     axis 180 -30 -90   XYZ
    dof rx ry rz
    limits (-60.0 90.0)
           (-90.0 90.0)
           (-90.0 90.0)
  end
  begin
     id 19
     name lradius
     direction 1 -4.48957e-011 -1.27696e-026   
     length 3.63979   
     axis 180 -30 -90   XYZ
    dof rx
    limits (-10.0 170.0)
  end
  begin
     id 20
     name lwrist
     direction 1 -4.49001e-011 -1.49001e-026   
     length 1.8199   
     axis 9.0955e-015 90 90   XYZ
    dof ry
    limits (-180.0 0.0)
 end
  begin
     id 21 
     name lhand
     direction 1 -4.48709e-011 -2.9758e-026   
     length 0.569419   
     axis 1.90115e-014 90 90   XYZ
    dof rx rz
    limits (-90.0 90.0)
           (-45.0 45.0)
  end
  begin
     id 22 
     name lfingers
     direction 1 -4.49175e-011 -5.96505e-026   
     length 0.45908   
     axis 3.80223e-014 90 90   XYZ
    dof rx
    limits (0.0 90.0)
  end
  begin
     id 23
     name lthumb
     direction 0.707107 -6.34864e-011 0.707107   
     length 0.65915   
     axis -90 45 -3.84942e-014   XYZ
    dof rx rz
    limits (-45.0 45.0)
           (-45.0 45.0)
  end
  begin
     id 24 
     name rclavicle
     direction -0.911913 0.396426 -0.106115   
     length 3.46301  
     axis 0 0 0   XYZ 
    dof ry rz
    limits (-10.0 20.0)
           (-20.0 0.0)
  end
  begin
     id 25 
     name rhumerus
     direction -1 -4.48965e-011 7.78516e-028  
     length 5.34339   
     axis 180 30 90   XYZ
    dof rx ry rz
    limits (-90.0 60.0)
           (-90.0 90.0)
           (-90.0 90.0)
  end
  begin
     id 26 
     name rradius
     direction -1 -4.48948e-011 -5.79823e-027   
     length 3.65101   
     axis 180 30 90   XYZ
    dof rx
    limits (-10.0 170.0)
  end
  begin
     id 27 
     name rwrist
     direction -1 -4.48995e-011 -1.48996e-026   
     length 1.8255   
     axis 9.0955e-015 -90 -90   XYZ
    dof ry
    limits (-180.0 0.0)
  end
  begin
     id 28
     name rhand
     direction -1 -4.48957e-011 -2.97937e-026   
     length 0.694249   
     axis 1.90115e-014 -90 -90   XYZ
    dof rx rz
    limits (-90.0 90.0)
           (-45.0 45.0)
  end
  begin
     id 29
     name rfingers
     direction -1 -4.4898e-011 -5.95943e-026   
     length 0.559721   
     axis 3.80223e-014 -90 -90   XYZ
    dof rx
    limits (0.0 90.0)
  end
  begin
     id 30
     name rthumb
     direction -0.707107 -6.34969e-011 0.707107   
     length 0.803651   
     axis -90 -45 3.84942e-014   XYZ
    dof rx rz
    limits (-45.0 45.0)
           (-45.0 45.0)
  end
:hierarchy
  begin
    root lhipjoint rhipjoint lowerback
    lhipjoint lfemur
    lfemur ltibia
    ltibia lfoot
    lfoot ltoes
    rhipjoint rfemur
    rfemur rtibia
    rtibia rfoot
    rfoot rtoes
    lowerback upperback
    upperback thorax
    thorax lowerneck lclavicle rclavicle
    lowerneck upperneck
    upperneck head
    lclavicle lhumerus
    lhumerus lradius
    lradius lwrist
    lwrist lhand lthumb
    lhand lfingers
    rclavicle rhumerus
    rhumerus rradius
    rradius rwrist
    rwrist rhand rthumb
    rhand rfingers
  end

#!OML:ASF H:\Terrain\Walking\May29\JustinRory\rory.ASF
:FULLY-SPECIFIED
:DEGREES
666
root 17.6933 10.3044 1.49244 -383.459 -76.1834 361.36
lowerback 38.5048 2.38251 -3.71266
upperback 15.0849 -0.208609 -0.24813
thorax -2.11359 -1.05584 1.75531
lowerneck 0.778298 -18.4384 -13.7857
upperneck 10.7546 -28.5616 23.6754
head 8.80923 -13.6308 6.63432
rclavicle 3.37934e-015 7.95139e-015
rhumerus 30.4934 17.3024 -81.3795
rradius 68.5363
rwrist -6.67026
rhand -12.8332 28.7135
rfingers 7.12502
rthumb 13.254 -0.845131
lclavicle 3.37934e-015 7.95139e-015
lhumerus 44.3609 -16.3943 21.9803
lradius 91.1149
lwrist 22.0793
lhand -17.5055 15.2211
lfingers 7.12502
lthumb 8.74751 -314.98
rfemur -69.4609 -9.11046 17.352
rtibia 75.4634
rfoot 18.9308 1.65664
rtoes 3.59594
lfemur -66.1361 11.9005 -6.02854
ltibia 67.7869
lfoot 27.8277 -0.73269
ltoes 11.2913
667
root 17.6928 10.3078 1.48835 -383.018 -75.9927 361.053
lowerback 38.4606 2.10926 -3.81352
upperback 15.0063 -0.556233 -0.0839119
thorax -2.16839 -1.23258 2.09961
lowerneck -0.216488 -17.7785 -14.2081
upperneck 12.4271 -27.761 22.8515
head 9.30335 -13.1305 6.49673
rclavicle -5.96354e-016 -1.59028e-015
rhumerus 30.579 17.359 -81.3675
rradius 68.655
rwrist -6.06798
rhand -12.5235 29.5225
rfingers 7.12502
rthumb 13.5525 -0.0164669
lclavicle -5.96354e-016 -1.59028e-015
lhumerus 43.2112 -16.6961 22.3343
lradius 90.1368
lwrist 21.3183
lhand -17.6867 15.0051
lfingers 7.12502
lthumb 8.5727 -315.189
rfemur -69.6548 -9.32665 17.3711
rtibia 75.6276
rfoot 18.7764 1.6731
rtoes 3.85092
lfemur -66.3054 11.7063 -6.06467
ltibia 67.7349
lfoot 27.2925 -1.10721
ltoes 10.7561
668
root 17.6988 10.3185 1.4802 -383.874 -75.8555 361.862
lowerback 38.5726 2.09669 -4.03075
upperback 15.0707 -0.666979 -0.0829076
thorax -2.12322 -1.30544 2.24911
lowerneck -1.20361 -17.2518 -13.8275
upperneck 13.6668 -27.0774 22.1275
head 9.58359 -12.69 6.2736
rclavicle -1.5704e-014 1.98785e-014
rhumerus 30.7713 16.8503 -81.3472
rradius 68.8489
rwrist -5.73145
rhand -11.7338 29.5636
rfingers 7.12502
rthumb 14.3135 0.0769308
lclavicle -1.5704e-014 1.98785e-014
lhumerus 42.6517 -16.9623 22.4324
lradius 89.1555
lwrist 20.2377
lhand -17.256 14.6091
lfingers 7.12502
lthumb 8.98832 -315.602
rfemur -69.6626 -9.45144 17.1584
rtibia 75.8569
rfoot 18.8074 1.63992
rtoes 4.21164
lfemur -66.0901 11.6261 -6.3147
ltibia 67.6418
lfoot 26.9416 -1.19355
ltoes 11.0388
669
root 17.6842 10.307 1.48626 -384.682 -75.6296 362.716
lowerback 38.5283 2.17677 -3.98857
upperback 15.2017 -0.561638 -0.14397
thorax -1.97161 -1.25653 2.12427
lowerneck -1.84013 -16.8758 -12.945
upperneck 14.3249 -26.5559 21.565
head 9.59754 -12.3564 6.03596
rclavicle -4.83047e-014 2.78299e-015
rhumerus 30.8624 15.5365 -81.4086
rradius 69.1895
rwrist -5.54892
rhand -10.2504 29.0848
rfingers 7.12502
rthumb 15.7425 -0.29496
lclavicle -4.83047e-014 2.78299e-015
lhumerus 42.836 -17.4136 22.4031
lradius 88.3352
lwrist 19.4986
lhand -16.8142 14.8084
lfingers 7.12502
lthumb 9.4146 -315.422
rfemur -69.7246 -9.71946 16.8813
rtibia 75.865
rfoot 18.9237 1.9825
rtoes 3.23418
lfemur -66.1575 11.4543 -6.58701
ltibia 67.6843
lfoot 27.0644 -0.379333
ltoes 13.5161
670
root 17.6827 10.3089 1.49007 -383.483 -75.646 361.559
lowerback 38.4649 2.08943 -3.3303
upperback 15.3077 -0.438909 -0.139593
thorax -1.84954 -1.16909 1.74627
lowerneck -2.38152 -16.5078 -12.1311
upperneck 14.8794 -26.0189 20.9706
head 9.56922 -12.0319 5.80351
rclavicle 4.57205e-015 2.54444e-014
rhumerus 30.9667 14.1926 -81.5886
rradius 69.4614
rwrist -5.45494
rhand -9.2469 28.9796
rfingers 7.12502
rthumb 16.7088 -0.321332
lclavicle 4.57205e-015 2.54444e-014
lhumerus 43.0513 -17.9068 22.3989
lradius 87.5141
lwrist 19.4802
lhand -16.1826 14.7352
lfingers 7.12502
lthumb 10.024 -315.523
rfemur -69.7569 -9.90735 17.2311
rtibia 75.8628
rfoot 18.7489 2.14748
rtoes 2.82168
lfemur -66.3499 11.4121 -6.32907
ltibia 67.7303
lfoot 27.3742 -0.375395
ltoes 12.9343
671
root 17.6778 10.3109 1.4838 -382.635 -75.7963 360.752
lowerback 38.4841 1.96228 -2.70042
upperback 15.3333 -0.389156 -0.303889
thorax -1.8357 -1.10559 1.23184
lowerneck -3.02435 -15.992 -11.578
upperneck 15.7577 -25.3913 20.5431
head 9.72994 -11.6491 5.66592
rclavicle -1.78906e-015 5.56597e-015
rhumerus 31.0258 13.1402 -81.8847
rradius 69.7124
rwrist -5.85109
rhand -9.24215 29.164
rfingers 7.12502
rthumb 16.7133 -0.136557
lclavicle -1.78906e-015 5.56597e-015
lhumerus 43.0977 -18.4364 22.0564
lradius 86.6431
lwrist 19.355
lhand -15.1389 14.1111
lfingers 7.12502
lthumb 11.0308 -316.199
rfemur -69.8157 -9.8844 17.564
rtibia 75.8565
rfoot 18.6551 2.03494
rtoes 3.33565
lfemur -66.4681 11.564 -6.08788
ltibia 67.7961
lfoot 27.0477 -0.893682
ltoes 11.8774
672
root 17.6682 10.3102 1.47126 -383.039 -75.8998 361.272
lowerback 38.4427 1.99099 -2.54805
upperback 15.337 -0.307491 -0.458289
thorax -1.82264 -1.04857 0.96332
lowerneck -3.54415 -15.4022 -11.2555
upperneck 16.5763 -24.6884 20.3075
head 9.90376 -11.2459 5.64657
rclavicle -2.0276e-014 -4.37326e-015
rhumerus 30.8949 12.2624 -82.2353
rradius 70.1464
rwrist -6.29423
rhand -9.66496 28.9574
rfingers 7.12502
rthumb 16.3063 -0.377028
lclavicle -2.0276e-014 -4.37326e-015
lhumerus 43.0048 -18.9085 21.6577
lradius 85.8972
lwrist 19.062
lhand -14.3965 13.591
lfingers 7.12502
lthumb 11.7467 -316.758
rfemur -70.0308 -9.88001 17.6512
rtibia 75.9358
rfoot 18.6638 2.09496
rtoes 3.52754
lfemur -66.5252 11.7061 -6.09858
ltibia 67.8083
lfoot 26.5935 -0.743493
ltoes 13.0833
673
root 17.6646 10.3104 1.46141 -383.103 -75.8533 361.552
lowerback 38.3972 1.97905 -2.47783
upperback 15.271 -0.285795 -0.505864
thorax -1.88221 -1.02396 0.870801
lowerneck -3.85645 -14.7999 -10.9783
upperneck 17.1693 -23.9318 20.1247
head 9.96805 -10.8444 5.67648
rclavicle 1.86858e-014 -3.22031e-014
rhumerus 30.7561 11.3526 -82.5772
rradius 70.4934
rwrist -6.27217
rhand -9.61892 28.7722
rfingers 7.12502
rthumb 16.3506 -0.558544
lclavicle 1.86858e-014 -3.22031e-014
lhumerus 42.7107 -19.4151 21.4825
lradius 85.1538
lwrist 18.4469
lhand -14.1771 13.7845
lfingers 7.12502
lthumb 11.9584 -316.577
rfemur -70.342 -10.0372 17.7407
rtibia 76.0045
rfoot 18.6624 2.26561
rtoes 3.03059
lfemur -66.7144 11.6929 -6.15893
ltibia 67.7574
lfoot 26.5584 -0.512153
ltoes 13.5131
674
root 17.6606 10.3084 1.45453 -383.931 -75.5207 362.624
lowerback 38.4268 2.04775 -2.75759
upperback 15.1973 -0.282394 -0.474686
thorax -1.9706 -1.02818 1.04783
lowerneck -4.32929 -14.2775 -10.5833
upperneck 17.7974 -23.2639 19.8135
head 10.0611 -10.4704 5.61329
rclavicle -2.92213e-014 2.54444e-014
rhumerus 30.816 10.1948 -82.6987
rradius 70.6589
rwrist -5.81722
rhand -8.51285 28.9779
rfingers 7.12502
rthumb 17.4153 -0.261929
lclavicle -2.92213e-014 2.54444e-014
lhumerus 42.3986 -19.9943 21.6852
lradius 84.2665
lwrist 17.3978
lhand -13.5211 14.6525
lfingers 7.12502
lthumb 12.5909 -315.747
rfemur -70.6321 -10.3483 17.4419
rtibia 76.0528
rfoot 18.6509 2.53188
rtoes 1.60466
lfemur -66.9289 11.5079 -6.63146
ltibia 67.6574
lfoot 26.5744 -0.576557
ltoes 12.8138
675
root 17.6638 10.3124 1.44945 -384.968 -75.3009 363.835
lowerback 38.4303 2.09492 -3.18771
upperback 15.1964 -0.368955 -0.406329
thorax -1.96586 -1.09443 1.37047
lowerneck -4.90046 -13.7321 -10.3841
upperneck 18.4988 -22.5055 19.3459
head 10.1901 -10.0652 5.53186
rclavicle 2.20651e-014 -7.95139e-015
rhumerus 31.1249 9.36301 -82.7362
rradius 70.8012
rwrist -5.10159
rhand -7.40729 28.862
rfingers 7.12502
rthumb 18.4791 -0.280313
lclavicle 2.20651e-014 -7.95139e-015
lhumerus 41.7321 -20.2928 22.1174
lradius 83.3832
lwrist 16.2239
lhand -12.6152 14.7439
lfingers 7.12502
lthumb 13.4641 -315.711
rfemur -70.7991 -10.5375 17.1028
rtibia 76.0653
rfoot 18.6834 2.36251
rtoes 2.88957
lfemur -67.0104 11.3949 -7.05172
ltibia 67.556
lfoot 26.994 -0.537556
ltoes 12.044
676
root 17.6703 10.3185 1.44392 -385.237 -75.2995 364.174
lowerback 38.4885 1.99316 -3.21025
upperback 15.2264 -0.519325 -0.49551
thorax -1.94574 -1.16935 1.33875
lowerneck -5.45357 -13.1128 -10.0075
upperneck 19.2349 -21.6559 18.8229
head 10.2906 -9.61696 5.42208
rclavicle -1.35174e-014 -9.14409e-015
rhumerus 31.3837 8.80612 -83.0144
rradius 70.9662
rwrist -5.24464
rhand -7.80119 28.5803
rfingers 7.12502
rthumb 18.1001 -0.597473
lclavicle -1.35174e-014 -9.14409e-015
lhumerus 41.1202 -20.4267 22.1595
lradius 82.5684
lwrist 15.0878
lhand -11.5242 13.3973
lfingers 7.12502
lthumb 14.5155 -317.131
rfemur -70.83 -10.5207 17.0189
rtibia 76.0645
rfoot 18.7413 1.77716
rtoes 5.96638
lfemur -66.9905 11.3812 -7.09262
ltibia 67.4641
lfoot 27.3949 -0.527979
ltoes 11.4564
677
root 17.6568 10.3093 1.4393 -385.719 -75.262 364.774
lowerback 38.4084 2.16356 -3.10759
upperback 15.3954 -0.287023 -0.567299
thorax -1.74369 -1.05632 1.12866
lowerneck -6.12031 -12.8066 -9.11898
upperneck 19.719 -21.2578 18.3138
head 10.3523 -9.3437 5.14421
rclavicle -1.63003e-014 1.55052e-014
rhumerus 31.5119 7.87861 -83.0419
rradius 71.3306
rwrist -7.36351
rhand -9.82265 28.4855
rfingers 7.12502
rthumb 16.1544 -0.861265
lclavicle -1.63003e-014 1.55052e-014
lhumerus 41.5152 -20.7037 22.0145
lradius 81.83
lwrist 14.2431
lhand -10.4303 12.3746
lfingers 7.12502
lthumb 15.5693 -318.232
rfemur -71.0014 -10.356 16.8156
rtibia 76.1747
rfoot 18.7712 1.66679
rtoes 5.12464
lfemur -67.106 11.4244 -7.22381
ltibia 67.4744
lfoot 26.8532 -0.476062
ltoes 12.6657
678
root 17.6579 10.3116 1.42677 -385.846 -75.324 364.999
lowerback 38.2997 2.32033 -2.8283
upperback 15.5946 -0.0125026 -0.640424
thorax -1.49986 -0.914629 0.812606
lowerneck -6.62821 -12.5643 -8.38586
upperneck 19.9178 -20.9465 18.0444
head 10.3519 -9.12707 4.96413
rclavicle -5.1684e-015 1.19271e-015
rhumerus 31.6748 6.82329 -83.1149
rradius 71.8218
rwrist -9.12177
rhand -11.6867 28.4856
rfingers 7.12502
rthumb 14.3589 -0.997832
lclavicle -5.1684e-015 1.19271e-015
lhumerus 41.8615 -20.956 21.9928
lradius 81.2458
lwrist 13.6384
lhand -9.69816 12.5542
lfingers 7.12502
lthumb 16.2743 -318.109
rfemur -71.1113 -10.3497 16.9352
rtibia 76.1357
rfoot 18.8091 1.8508
rtoes 3.8722
lfemur -67.182 11.5406 -7.20771
ltibia 67.4327
lfoot 26.3742 -0.168516
ltoes 14.5156
679
root 17.6565 10.3129 1.41668 -386.028 -75.431 365.162
lowerback 38.4828 2.25594 -2.32947
upperback 15.645 0.0419226 -0.94279
thorax -1.5037 -0.850642 0.219025
lowerneck -6.79481 -12.1948 -7.77649
upperneck 19.9839 -20.4885 17.9743
head 10.259 -8.87091 4.91828
rclavicle -2.00773e-014 1.98785e-015
rhumerus 31.7294 5.26596 -83.8534
rradius 72.1664
rwrist -8.01756
rhand -11.4354 28.8588
rfingers 7.12502
rthumb 14.6011 -0.60727
lclavicle -2.00773e-014 1.98785e-015
lhumerus 41.8738 -21.2815 21.843
lradius 80.7588
lwrist 13.1897
lhand -9.05175 13.2373
lfingers 7.12502
lthumb 16.8966 -317.478
rfemur -71.0935 -10.3 17.0323
rtibia 76.1093
rfoot 18.7897 1.92277
rtoes 4.30167
lfemur -67.1385 11.6496 -7.11545
ltibia 67.4365
lfoot 26.5058 -0.217246
ltoes 14.1699
680
root 17.6565 10.3181 1.40748 -385.987 -75.5524 365.075
lowerback 38.8252 2.2352 -1.89861
upperback 15.5907 0.140797 -1.0537
thorax -1.67079 -0.773359 -0.152107
lowerneck -6.96578 -11.8822 -7.37847
upperneck 20.2078 -20.0551 17.6842
head 10.2247 -8.64459 4.82299
rclavicle 2.22639e-014 -1.15295e-014
rhumerus 31.8751 3.64618 -84.3383
rradius 72.2673
rwrist -6.39598
rhand -10.2395 29.604
rfingers 7.12502
rthumb 15.753 0.225038
lclavicle 2.22639e-014 -1.15295e-014
lhumerus 41.8516 -21.7029 22.0963
lradius 80.1589
lwrist 12.8093
lhand -8.3486 13.718
lfingers 7.12502
lthumb 17.5734 -317.056
rfemur -71.0232 -10.3182 17.2394
rtibia 76.0533
rfoot 18.708 2.19688
rtoes 4.01707
lfemur -66.9878 11.7535 -7.0006
ltibia 67.3814
lfoot 26.6154 -0.656021
ltoes 12.6745
